<mxfile host="app.diagrams.net" modified="2023-04-30T20:39:19.244Z" agent="Mozilla/5.0 (Windows NT 10.0; Win64; x64) AppleWebKit/537.36 (KHTML, like Gecko) Chrome/112.0.0.0 Safari/537.36" etag="ZUHxnNvzG4Qzjf5SUGiJ" version="21.1.5" type="github">
  <diagram name="Page-1" id="lsDbciXQdnLVS-XuDeB4">
    <mxGraphModel dx="1434" dy="796" grid="0" gridSize="10" guides="1" tooltips="1" connect="1" arrows="1" fold="1" page="1" pageScale="1" pageWidth="3300" pageHeight="2339" math="0" shadow="0">
      <root>
        <mxCell id="0" />
        <mxCell id="1" parent="0" />
        <mxCell id="UXV_n_zN8S6nf0TRZX5L-1" value="Result&lt;br&gt;Creator" style="rounded=1;whiteSpace=wrap;html=1;" parent="1" vertex="1">
          <mxGeometry x="1125" y="364" width="87" height="68" as="geometry" />
        </mxCell>
        <mxCell id="UXV_n_zN8S6nf0TRZX5L-4" value="Load&amp;nbsp;&lt;br&gt;Tester" style="rounded=1;whiteSpace=wrap;html=1;" parent="1" vertex="1">
          <mxGeometry x="797" y="364" width="87" height="68" as="geometry" />
        </mxCell>
        <mxCell id="UXV_n_zN8S6nf0TRZX5L-5" value="Script &lt;br&gt;Executor" style="rounded=1;whiteSpace=wrap;html=1;" parent="1" vertex="1">
          <mxGeometry x="571" y="362" width="87" height="68" as="geometry" />
        </mxCell>
        <mxCell id="UXV_n_zN8S6nf0TRZX5L-6" value="Setup test specific actions e.g. setup specific autoscaler" style="text;html=1;strokeColor=none;fillColor=none;align=center;verticalAlign=middle;whiteSpace=wrap;rounded=0;" parent="1" vertex="1">
          <mxGeometry x="560" y="295" width="109" height="72" as="geometry" />
        </mxCell>
        <mxCell id="UXV_n_zN8S6nf0TRZX5L-7" value="Script &lt;br&gt;Executor" style="rounded=1;whiteSpace=wrap;html=1;" parent="1" vertex="1">
          <mxGeometry x="1288" y="364" width="87" height="68" as="geometry" />
        </mxCell>
        <mxCell id="UXV_n_zN8S6nf0TRZX5L-8" value="Teardown test specific actions e.g. setup specific autoscaler" style="text;html=1;strokeColor=none;fillColor=none;align=center;verticalAlign=middle;whiteSpace=wrap;rounded=0;" parent="1" vertex="1">
          <mxGeometry x="1279" y="287" width="109" height="72" as="geometry" />
        </mxCell>
        <mxCell id="UXV_n_zN8S6nf0TRZX5L-9" value="" style="endArrow=classic;html=1;rounded=0;exitX=1;exitY=0.5;exitDx=0;exitDy=0;entryX=0;entryY=0.5;entryDx=0;entryDy=0;" parent="1" source="UXV_n_zN8S6nf0TRZX5L-5" target="UXV_n_zN8S6nf0TRZX5L-4" edge="1">
          <mxGeometry width="50" height="50" relative="1" as="geometry">
            <mxPoint x="703" y="384" as="sourcePoint" />
            <mxPoint x="753" y="334" as="targetPoint" />
          </mxGeometry>
        </mxCell>
        <mxCell id="UXV_n_zN8S6nf0TRZX5L-14" value="" style="endArrow=classic;html=1;rounded=0;exitX=1;exitY=0.5;exitDx=0;exitDy=0;entryX=0;entryY=0.5;entryDx=0;entryDy=0;" parent="1" source="UXV_n_zN8S6nf0TRZX5L-1" target="UXV_n_zN8S6nf0TRZX5L-7" edge="1">
          <mxGeometry width="50" height="50" relative="1" as="geometry">
            <mxPoint x="499" y="467" as="sourcePoint" />
            <mxPoint x="605" y="467" as="targetPoint" />
          </mxGeometry>
        </mxCell>
        <mxCell id="UXV_n_zN8S6nf0TRZX5L-15" value="Sample&lt;br&gt;Application (Pod/Service)" style="rounded=1;whiteSpace=wrap;html=1;" parent="1" vertex="1">
          <mxGeometry x="1020" y="702" width="86" height="60" as="geometry" />
        </mxCell>
        <mxCell id="UXV_n_zN8S6nf0TRZX5L-16" value="Prometheus &lt;br&gt;API" style="rounded=1;whiteSpace=wrap;html=1;" parent="1" vertex="1">
          <mxGeometry x="1142" y="702" width="71" height="60" as="geometry" />
        </mxCell>
        <mxCell id="UXV_n_zN8S6nf0TRZX5L-17" value="" style="rounded=1;whiteSpace=wrap;html=1;fillColor=none;strokeWidth=2;" parent="1" vertex="1">
          <mxGeometry x="972" y="673" width="300" height="138" as="geometry" />
        </mxCell>
        <mxCell id="UXV_n_zN8S6nf0TRZX5L-18" value="K8s cluster" style="text;html=1;strokeColor=none;fillColor=none;align=center;verticalAlign=middle;whiteSpace=wrap;rounded=0;" parent="1" vertex="1">
          <mxGeometry x="972" y="817" width="109" height="27" as="geometry" />
        </mxCell>
        <mxCell id="UXV_n_zN8S6nf0TRZX5L-19" value="" style="rounded=1;whiteSpace=wrap;html=1;fillColor=none;strokeWidth=2;" parent="1" vertex="1">
          <mxGeometry x="703" y="676" width="224" height="138" as="geometry" />
        </mxCell>
        <mxCell id="UXV_n_zN8S6nf0TRZX5L-20" value="Test specific resources&amp;nbsp;" style="text;html=1;strokeColor=none;fillColor=none;align=center;verticalAlign=middle;whiteSpace=wrap;rounded=0;" parent="1" vertex="1">
          <mxGeometry x="711" y="821" width="133" height="27" as="geometry" />
        </mxCell>
        <mxCell id="UXV_n_zN8S6nf0TRZX5L-21" value="Deployment (Test1)" style="rounded=1;whiteSpace=wrap;html=1;" parent="1" vertex="1">
          <mxGeometry x="723" y="689" width="71" height="46" as="geometry" />
        </mxCell>
        <mxCell id="UXV_n_zN8S6nf0TRZX5L-22" value="Autoscaler (Test1)" style="rounded=1;whiteSpace=wrap;html=1;" parent="1" vertex="1">
          <mxGeometry x="832" y="691.5" width="63" height="41" as="geometry" />
        </mxCell>
        <mxCell id="UXV_n_zN8S6nf0TRZX5L-23" value="Deployment (Test2)" style="rounded=1;whiteSpace=wrap;html=1;" parent="1" vertex="1">
          <mxGeometry x="723" y="752" width="71" height="46" as="geometry" />
        </mxCell>
        <mxCell id="UXV_n_zN8S6nf0TRZX5L-24" value="Autoscaler (Test2)" style="rounded=1;whiteSpace=wrap;html=1;" parent="1" vertex="1">
          <mxGeometry x="833" y="754.5" width="62" height="41" as="geometry" />
        </mxCell>
        <mxCell id="UXV_n_zN8S6nf0TRZX5L-26" value="" style="endArrow=classic;html=1;rounded=0;exitX=0.5;exitY=1;exitDx=0;exitDy=0;entryX=0.009;entryY=0.558;entryDx=0;entryDy=0;dashed=1;entryPerimeter=0;" parent="1" source="UXV_n_zN8S6nf0TRZX5L-5" target="UXV_n_zN8S6nf0TRZX5L-19" edge="1">
          <mxGeometry width="50" height="50" relative="1" as="geometry">
            <mxPoint x="469" y="437" as="sourcePoint" />
            <mxPoint x="575" y="437" as="targetPoint" />
          </mxGeometry>
        </mxCell>
        <mxCell id="UXV_n_zN8S6nf0TRZX5L-27" value="Build Enviroment" style="rounded=1;whiteSpace=wrap;html=1;" parent="1" vertex="1">
          <mxGeometry x="877" y="162" width="87" height="68" as="geometry" />
        </mxCell>
        <mxCell id="UXV_n_zN8S6nf0TRZX5L-28" value="" style="endArrow=classic;html=1;rounded=0;exitX=0.5;exitY=1;exitDx=0;exitDy=0;entryX=0.393;entryY=-0.014;entryDx=0;entryDy=0;dashed=1;entryPerimeter=0;" parent="1" source="UXV_n_zN8S6nf0TRZX5L-27" target="UXV_n_zN8S6nf0TRZX5L-17" edge="1">
          <mxGeometry width="50" height="50" relative="1" as="geometry">
            <mxPoint x="405" y="201" as="sourcePoint" />
            <mxPoint x="531" y="347" as="targetPoint" />
          </mxGeometry>
        </mxCell>
        <mxCell id="UXV_n_zN8S6nf0TRZX5L-29" value="" style="endArrow=classic;html=1;rounded=0;exitX=1;exitY=1;exitDx=0;exitDy=0;dashed=1;entryX=0.5;entryY=0;entryDx=0;entryDy=0;" parent="1" target="UXV_n_zN8S6nf0TRZX5L-15" edge="1" source="UXV_n_zN8S6nf0TRZX5L-4">
          <mxGeometry width="50" height="50" relative="1" as="geometry">
            <mxPoint x="622" y="461" as="sourcePoint" />
            <mxPoint x="923" y="562" as="targetPoint" />
          </mxGeometry>
        </mxCell>
        <mxCell id="UXV_n_zN8S6nf0TRZX5L-30" value="" style="endArrow=classic;html=1;rounded=0;dashed=1;entryX=0.5;entryY=0;entryDx=0;entryDy=0;exitX=1;exitY=0.75;exitDx=0;exitDy=0;" parent="1" source="xlp2EmmcGdVCdcnWFPCz-4" target="UXV_n_zN8S6nf0TRZX5L-16" edge="1">
          <mxGeometry width="50" height="50" relative="1" as="geometry">
            <mxPoint x="946" y="468" as="sourcePoint" />
            <mxPoint x="943" y="637" as="targetPoint" />
          </mxGeometry>
        </mxCell>
        <mxCell id="UXV_n_zN8S6nf0TRZX5L-31" value="Setup environment for tests - ran once before all tests execute" style="text;html=1;strokeColor=none;fillColor=none;align=center;verticalAlign=middle;whiteSpace=wrap;rounded=0;fontStyle=1" parent="1" vertex="1">
          <mxGeometry x="751" y="158" width="119" height="72" as="geometry" />
        </mxCell>
        <mxCell id="UXV_n_zN8S6nf0TRZX5L-32" value="Destroy Environment" style="rounded=1;whiteSpace=wrap;html=1;" parent="1" vertex="1">
          <mxGeometry x="1217" y="158" width="87" height="68" as="geometry" />
        </mxCell>
        <mxCell id="UXV_n_zN8S6nf0TRZX5L-33" value="Destroy environment for tests - ran after all tests execute" style="text;html=1;strokeColor=none;fillColor=none;align=center;verticalAlign=middle;whiteSpace=wrap;rounded=0;fontStyle=1" parent="1" vertex="1">
          <mxGeometry x="1103" y="158" width="109" height="72" as="geometry" />
        </mxCell>
        <mxCell id="UXV_n_zN8S6nf0TRZX5L-35" value="" style="endArrow=classic;html=1;rounded=0;exitX=0.5;exitY=1;exitDx=0;exitDy=0;entryX=0.75;entryY=0;entryDx=0;entryDy=0;dashed=1;" parent="1" source="UXV_n_zN8S6nf0TRZX5L-32" target="UXV_n_zN8S6nf0TRZX5L-17" edge="1">
          <mxGeometry width="50" height="50" relative="1" as="geometry">
            <mxPoint x="871" y="201" as="sourcePoint" />
            <mxPoint x="893" y="605" as="targetPoint" />
          </mxGeometry>
        </mxCell>
        <mxCell id="xlp2EmmcGdVCdcnWFPCz-1" value="" style="endArrow=classic;html=1;rounded=0;exitX=0.75;exitY=1;exitDx=0;exitDy=0;entryX=0;entryY=0.5;entryDx=0;entryDy=0;" edge="1" parent="1" source="UXV_n_zN8S6nf0TRZX5L-5" target="xlp2EmmcGdVCdcnWFPCz-4">
          <mxGeometry width="50" height="50" relative="1" as="geometry">
            <mxPoint x="457" y="420" as="sourcePoint" />
            <mxPoint x="582" y="480" as="targetPoint" />
          </mxGeometry>
        </mxCell>
        <mxCell id="xlp2EmmcGdVCdcnWFPCz-4" value="Metric Accumulator" style="rounded=1;whiteSpace=wrap;html=1;align=center;" vertex="1" parent="1">
          <mxGeometry x="694" y="479" width="222" height="154" as="geometry" />
        </mxCell>
        <mxCell id="xlp2EmmcGdVCdcnWFPCz-5" value="Metric&amp;nbsp;&lt;br&gt;Retriever" style="rounded=1;whiteSpace=wrap;html=1;" vertex="1" parent="1">
          <mxGeometry x="714" y="571" width="72" height="54" as="geometry" />
        </mxCell>
        <mxCell id="xlp2EmmcGdVCdcnWFPCz-7" value="Metric&amp;nbsp;&lt;br&gt;Parser" style="rounded=1;whiteSpace=wrap;html=1;" vertex="1" parent="1">
          <mxGeometry x="810" y="571" width="77" height="57" as="geometry" />
        </mxCell>
        <mxCell id="xlp2EmmcGdVCdcnWFPCz-8" value="Graph Generator" style="rounded=1;whiteSpace=wrap;html=1;" vertex="1" parent="1">
          <mxGeometry x="977" y="364" width="87" height="68" as="geometry" />
        </mxCell>
        <mxCell id="xlp2EmmcGdVCdcnWFPCz-9" value="" style="endArrow=classic;html=1;rounded=0;exitX=1;exitY=0.5;exitDx=0;exitDy=0;entryX=0;entryY=0.5;entryDx=0;entryDy=0;" edge="1" parent="1" source="UXV_n_zN8S6nf0TRZX5L-4" target="xlp2EmmcGdVCdcnWFPCz-8">
          <mxGeometry width="50" height="50" relative="1" as="geometry">
            <mxPoint x="509" y="529" as="sourcePoint" />
            <mxPoint x="650" y="408" as="targetPoint" />
          </mxGeometry>
        </mxCell>
        <mxCell id="xlp2EmmcGdVCdcnWFPCz-10" value="" style="endArrow=classic;html=1;rounded=0;exitX=1;exitY=0.5;exitDx=0;exitDy=0;" edge="1" parent="1" source="xlp2EmmcGdVCdcnWFPCz-8" target="UXV_n_zN8S6nf0TRZX5L-1">
          <mxGeometry width="50" height="50" relative="1" as="geometry">
            <mxPoint x="897" y="401" as="sourcePoint" />
            <mxPoint x="819" y="408" as="targetPoint" />
          </mxGeometry>
        </mxCell>
      </root>
    </mxGraphModel>
  </diagram>
</mxfile>
